<?xml version="1.0" encoding="UTF-8"?>
<svg width="28px" height="28px" viewBox="0 0 28 28" version="1.1" xmlns="http://www.w3.org/2000/svg" xmlns:xlink="http://www.w3.org/1999/xlink">
    <!-- Generator: Sketch 42 (36781) - http://www.bohemiancoding.com/sketch -->
    <title>Facebook-color</title>
    <desc>Created with Sketch.</desc>
    <defs></defs>
    <g id="Wireframes-Back-Office" stroke="none" stroke-width="1" fill="none" fill-rule="evenodd">
        <g id="Birdee-Webfront-09-Contact" transform="translate(-247.000000, -1042.000000)" fill="#FFFFFF">
            <g id="Footer" transform="translate(0.000000, 914.000000)">
                <g id="Group-5">
                    <g id="Group-7" transform="translate(247.000000, 128.000000)">
                        <path d="M14.7614773,27.55 L1.52531512,27.55 C0.682660014,27.55 0,26.869051 0,26.0293564 L0,1.52053671 C0,0.68062832 0.68276725,0 1.52531512,0 L26.1111558,0 C26.9534892,0 27.6363636,0.68062832 27.6363636,1.52053671 L27.6363636,26.0293564 C27.6363636,26.8691579 26.9533819,27.55 26.1111558,27.55 L19.0686909,27.55 L19.0686909,16.8811217 L22.6609667,16.8811217 L23.1988591,12.7232705 L19.0686909,12.7232705 L19.0686909,10.0687452 C19.0686909,8.86495136 19.4040158,8.04460556 21.1356516,8.04460556 L23.3442702,8.04364346 L23.3442702,4.32482801 C22.962298,4.27415771 21.651239,4.16095127 20.1259239,4.16095127 C16.9415712,4.16095127 14.7614773,6.09860934 14.7614773,9.65696883 L14.7614773,12.7232705 L11.1599792,12.7232705 L11.1599792,16.8811217 L14.7614773,16.8811217 L14.7614773,27.55 L14.7614773,27.55 Z" id="Facebook"></path>
                    </g>
                </g>
            </g>
        </g>
    </g>
</svg>