<?xml version="1.0" encoding="UTF-8"?>
<svg width="30px" height="30px" viewBox="0 0 30 30" version="1.1" xmlns="http://www.w3.org/2000/svg" xmlns:xlink="http://www.w3.org/1999/xlink">
    <!-- Generator: Sketch 50.2 (55047) - http://www.bohemiancoding.com/sketch -->
    <title>Rectangle-2-Copy-2</title>
    <desc>Created with Sketch.</desc>
    <defs></defs>
    <g id="Page-1" stroke="none" stroke-width="1" fill="none" fill-rule="evenodd">
        <path d="M2,0 L28,-2.22044605e-16 C29.1045695,-4.2495073e-16 30,0.8954305 30,2 L30,28 C30,29.1045695 29.1045695,30 28,30 L2,30 C0.8954305,30 1.3527075e-16,29.1045695 0,28 L-2.22044605e-16,2 C-3.57315355e-16,0.8954305 0.8954305,2.02906125e-16 2,0 Z M25.1636364,23.925 L25.1636364,16.8048009 C25.1636364,12.8385397 22.8999487,10.9966303 20.0186693,10.9966303 C17.6962798,10.9966303 16.2409647,12.250722 15.9719148,13.1294311 L15.9719148,11.1197461 L11.4176345,11.1197461 C11.4763363,12.18675 11.4176345,23.925 11.4176345,23.925 L15.9719148,23.925 L15.9719148,16.9955097 C15.9719148,16.610471 15.9535705,16.2254322 16.0709741,15.9490251 C16.3840503,15.1789476 17.0566749,14.3799017 18.2661764,14.3799017 C19.8474558,14.3799017 20.5665526,15.5639864 20.5665526,17.2984712 L20.5665526,23.925 L25.1636364,23.925 Z M6.81199008,9.51803323 C8.33579064,9.51803323 9.28480289,8.53552059 9.28480289,7.29470609 C9.25545199,6.03095825 8.33579064,5.075 6.84011802,5.075 C5.34322244,5.075 4.36363636,6.03337229 4.36363636,7.29832714 C4.36363636,8.53914164 5.3150945,9.51803323 6.78263918,9.51803323 L6.81199008,9.51803323 Z M4.88828359,11.1197461 L4.88828359,23.925 L8.94237578,23.925 L8.94237578,11.1197461 L4.88828359,11.1197461 Z" id="Rectangle-2-Copy-2" fill="#FFFFFF" fill-rule="nonzero"></path>
    </g>
</svg>