<?xml version="1.0" encoding="UTF-8"?>
<svg width="30px" height="30px" viewBox="0 0 30 30" version="1.1" xmlns="http://www.w3.org/2000/svg" xmlns:xlink="http://www.w3.org/1999/xlink">
    <!-- Generator: Sketch 50.2 (55047) - http://www.bohemiancoding.com/sketch -->
    <title>Rectangle-2-Copy</title>
    <desc>Created with Sketch.</desc>
    <defs></defs>
    <g id="Page-1" stroke="none" stroke-width="1" fill="none" fill-rule="evenodd">
        <path d="M2,0 L28,0 C29.1045695,1.75920346e-15 30,0.8954305 30,2 L30,28 C30,29.1045695 29.1045695,30 28,30 L2,30 C0.8954305,30 5.43068101e-16,29.1045695 -1.55431223e-15,28 L0,2 C-1.3527075e-16,0.8954305 0.8954305,2.02906125e-16 2,0 Z M25.3875,8.50760825 C24.6269083,8.85397878 23.8079965,9.08821497 22.9489897,9.19287368 C23.8262216,8.65462884 24.499333,7.80116188 24.8164488,6.78447716 C23.9951069,7.28285202 23.0875,7.64541973 22.1179279,7.83978593 C21.3451862,6.9937946 20.2407488,6.46551724 19.0184561,6.46551724 C16.674716,6.46551724 14.7732369,8.4154089 14.7732369,10.8200676 C14.7732369,11.1614544 14.809687,11.4928737 14.8825872,11.8118336 C11.3530045,11.6299267 8.22437268,9.8980741 6.12849313,7.26042515 C5.76277733,7.9058206 5.55379688,8.65462884 5.55379688,9.45202862 C5.55379688,10.9621045 6.30345351,12.2952572 7.44312599,13.0764598 C6.74814447,13.0552789 6.09204305,12.8571749 5.5185618,12.5332312 L5.5185618,12.5868065 C5.5185618,14.697424 6.98263999,16.4579333 8.92664417,16.8566332 C8.57064842,16.9588 8.19521262,17.0098834 7.80762678,17.0098834 C7.53425119,17.0098834 7.2669506,16.9837188 7.00815504,16.9326354 C7.54883122,18.6619961 9.11618462,19.9216386 10.9751387,19.9552789 C9.52199552,21.123968 7.68977153,21.8204468 5.7008122,21.8204468 C5.35818145,21.8204468 5.01919572,21.8005118 4.6875,21.7606418 C6.56710908,22.9941197 8.80028397,23.7155172 11.1974842,23.7155172 C19.0099511,23.7155172 23.2806854,17.0809019 23.2806854,11.3259181 C23.2806854,11.1365357 23.2770405,10.9471532 23.2697503,10.7615086 C24.0995972,10.1472616 24.8200937,9.38101024 25.3875,8.50760825 Z" id="Rectangle-2-Copy" fill="#FFFFFF" fill-rule="nonzero"></path>
    </g>
</svg>